<svg xmlns="http://www.w3.org/2000/svg" viewBox="0 0 1180 398" width="1180" height="398" role="img" aria-labelledby="title desc">
<title id="title">Omar López — Backend Engineer</title><desc id="desc">Terminal animada con identidad profesional y diagrama API, datos y eventos.</desc>
<defs>
  <linearGradient id="base" x1="0" y1="0" x2="1" y2="1"><stop offset="0" stop-color="#F3F7FC"/><stop offset="1" stop-color="#FFFFFF"/></linearGradient>
  <filter id="shade" x="-20%" y="-30%" width="150%" height="170%"><feDropShadow dx="0" dy="6" stdDeviation="10" flood-color="#CBD8E5" flood-opacity=".35"/></filter>
  <clipPath id="corners"><rect x="1" y="1" width="1178" height="396" rx="18"/></clipPath>
</defs>
<style>
  .cursor { animation: blink 1.2s steps(1) infinite; }
  .packet { animation: flow 4.5s linear infinite; }
  .packet2 { animation: flow 4.5s linear infinite; animation-delay: -2.2s; }
  .pulse { animation: glow 3s ease-in-out infinite; }
  .pulse2 { animation: glow 3s ease-in-out infinite; animation-delay: -1.5s; }
  .logline { animation: appear 9s ease-in-out infinite; }
  @keyframes blink { 0%,47% {opacity:1} 48%,100% {opacity:0} }
  @keyframes flow { from {stroke-dashoffset:52} to {stroke-dashoffset:0} }
  @keyframes glow { 0%,100% {opacity:.28} 45%,60% {opacity:1} }
  @keyframes appear {0%,15% {opacity:.35} 16%,65% {opacity:1} 66%,100% {opacity:.35}}
  @media (prefers-reduced-motion: reduce) { .cursor,.packet,.packet2,.pulse,.pulse2,.logline {animation:none} }
</style>
<g clip-path="url(#corners)">
<rect width="1180" height="398" fill="url(#base)"/>
<rect x="22" y="20" width="1136" height="358" rx="14" fill="#FFFFFF" stroke="#C7D9EA" filter="url(#shade)"/>
<path d="M22 65H1158" stroke="#C7D9EA"/>
<circle cx="45" cy="43" r="5" fill="#FF605C"/><circle cx="64" cy="43" r="5" fill="#FFBE2F"/><circle cx="83" cy="43" r="5" fill="#2ACA44"/>
<text x="590" y="48" font-size="13" font-weight="500" font-family="'SFMono-Regular',Consolas,'Liberation Mono',monospace" fill="#536F8C" text-anchor="middle">omar@github: ~/profile  —  ./build.sh</text><path d="M730 84V355" stroke="#C7D9EA"/><text x="60" y="105" font-size="14" font-weight="600" font-family="'SFMono-Regular',Consolas,'Liberation Mono',monospace" fill="#087F70" >~/profile/README.md</text><text x="60" y="166" font-size="45" font-weight="800" font-family="Inter,Segoe UI,Helvetica,Arial,sans-serif" fill="#10253B" letter-spacing="2">OMAR LÓPEZ</text><text x="61" y="208" font-size="24" font-weight="700" font-family="'SFMono-Regular',Consolas,'Liberation Mono',monospace" fill="#0575BB" >BACKEND ENGINEER</text><rect x="61" y="227" width="10" height="23" rx="1" fill="#087F70" class="cursor"/><text x="82" y="246" font-size="17" font-weight="500" font-family="'SFMono-Regular',Consolas,'Liberation Mono',monospace" fill="#536F8C" >Python · FastAPI · Django · PostgreSQL</text><rect x="61" y="274" width="211" height="35" rx="17" fill="#E7F1F9" stroke="#C7D9EA"/><text x="78" y="296" font-size="13" font-weight="650" font-family="'SFMono-Regular',Consolas,'Liberation Mono',monospace" fill="#087F70" >API ARCHITECTURE</text><rect x="281" y="274" width="225" height="35" rx="17" fill="#E7F1F9" stroke="#C7D9EA"/><text x="299" y="296" font-size="13" font-weight="650" font-family="'SFMono-Regular',Consolas,'Liberation Mono',monospace" fill="#205DAE" >DISTRIBUTED SYSTEMS</text><text x="62" y="344" font-size="14" font-weight="400" font-family="'SFMono-Regular',Consolas,'Liberation Mono',monospace" fill="#536F8C" >&gt; build · test · observe · iterate</text><text x="760" y="108" font-size="14" font-weight="700" font-family="'SFMono-Regular',Consolas,'Liberation Mono',monospace" fill="#536F8C" letter-spacing="1.6">SYSTEM TOPOLOGY</text><circle cx="773" cy="137" r=".85" fill="#536F8C" opacity=".18"/><circle cx="773" cy="161" r=".85" fill="#536F8C" opacity=".18"/><circle cx="773" cy="185" r=".85" fill="#536F8C" opacity=".18"/><circle cx="773" cy="209" r=".85" fill="#536F8C" opacity=".18"/><circle cx="773" cy="233" r=".85" fill="#536F8C" opacity=".18"/><circle cx="773" cy="257" r=".85" fill="#536F8C" opacity=".18"/><circle cx="773" cy="281" r=".85" fill="#536F8C" opacity=".18"/><circle cx="773" cy="305" r=".85" fill="#536F8C" opacity=".18"/><circle cx="773" cy="329" r=".85" fill="#536F8C" opacity=".18"/><circle cx="797" cy="137" r=".85" fill="#536F8C" opacity=".18"/><circle cx="797" cy="161" r=".85" fill="#536F8C" opacity=".18"/><circle cx="797" cy="185" r=".85" fill="#536F8C" opacity=".18"/><circle cx="797" cy="209" r=".85" fill="#536F8C" opacity=".18"/><circle cx="797" cy="233" r=".85" fill="#536F8C" opacity=".18"/><circle cx="797" cy="257" r=".85" fill="#536F8C" opacity=".18"/><circle cx="797" cy="281" r=".85" fill="#536F8C" opacity=".18"/><circle cx="797" cy="305" r=".85" fill="#536F8C" opacity=".18"/><circle cx="797" cy="329" r=".85" fill="#536F8C" opacity=".18"/><circle cx="821" cy="137" r=".85" fill="#536F8C" opacity=".18"/><circle cx="821" cy="161" r=".85" fill="#536F8C" opacity=".18"/><circle cx="821" cy="185" r=".85" fill="#536F8C" opacity=".18"/><circle cx="821" cy="209" r=".85" fill="#536F8C" opacity=".18"/><circle cx="821" cy="233" r=".85" fill="#536F8C" opacity=".18"/><circle cx="821" cy="257" r=".85" fill="#536F8C" opacity=".18"/><circle cx="821" cy="281" r=".85" fill="#536F8C" opacity=".18"/><circle cx="821" cy="305" r=".85" fill="#536F8C" opacity=".18"/><circle cx="821" cy="329" r=".85" fill="#536F8C" opacity=".18"/><circle cx="845" cy="137" r=".85" fill="#536F8C" opacity=".18"/><circle cx="845" cy="161" r=".85" fill="#536F8C" opacity=".18"/><circle cx="845" cy="185" r=".85" fill="#536F8C" opacity=".18"/><circle cx="845" cy="209" r=".85" fill="#536F8C" opacity=".18"/><circle cx="845" cy="233" r=".85" fill="#536F8C" opacity=".18"/><circle cx="845" cy="257" r=".85" fill="#536F8C" opacity=".18"/><circle cx="845" cy="281" r=".85" fill="#536F8C" opacity=".18"/><circle cx="845" cy="305" r=".85" fill="#536F8C" opacity=".18"/><circle cx="845" cy="329" r=".85" fill="#536F8C" opacity=".18"/><circle cx="869" cy="137" r=".85" fill="#536F8C" opacity=".18"/><circle cx="869" cy="161" r=".85" fill="#536F8C" opacity=".18"/><circle cx="869" cy="185" r=".85" fill="#536F8C" opacity=".18"/><circle cx="869" cy="209" r=".85" fill="#536F8C" opacity=".18"/><circle cx="869" cy="233" r=".85" fill="#536F8C" opacity=".18"/><circle cx="869" cy="257" r=".85" fill="#536F8C" opacity=".18"/><circle cx="869" cy="281" r=".85" fill="#536F8C" opacity=".18"/><circle cx="869" cy="305" r=".85" fill="#536F8C" opacity=".18"/><circle cx="869" cy="329" r=".85" fill="#536F8C" opacity=".18"/><circle cx="893" cy="137" r=".85" fill="#536F8C" opacity=".18"/><circle cx="893" cy="161" r=".85" fill="#536F8C" opacity=".18"/><circle cx="893" cy="185" r=".85" fill="#536F8C" opacity=".18"/><circle cx="893" cy="209" r=".85" fill="#536F8C" opacity=".18"/><circle cx="893" cy="233" r=".85" fill="#536F8C" opacity=".18"/><circle cx="893" cy="257" r=".85" fill="#536F8C" opacity=".18"/><circle cx="893" cy="281" r=".85" fill="#536F8C" opacity=".18"/><circle cx="893" cy="305" r=".85" fill="#536F8C" opacity=".18"/><circle cx="893" cy="329" r=".85" fill="#536F8C" opacity=".18"/><circle cx="917" cy="137" r=".85" fill="#536F8C" opacity=".18"/><circle cx="917" cy="161" r=".85" fill="#536F8C" opacity=".18"/><circle cx="917" cy="185" r=".85" fill="#536F8C" opacity=".18"/><circle cx="917" cy="209" r=".85" fill="#536F8C" opacity=".18"/><circle cx="917" cy="233" r=".85" fill="#536F8C" opacity=".18"/><circle cx="917" cy="257" r=".85" fill="#536F8C" opacity=".18"/><circle cx="917" cy="281" r=".85" fill="#536F8C" opacity=".18"/><circle cx="917" cy="305" r=".85" fill="#536F8C" opacity=".18"/><circle cx="917" cy="329" r=".85" fill="#536F8C" opacity=".18"/><circle cx="941" cy="137" r=".85" fill="#536F8C" opacity=".18"/><circle cx="941" cy="161" r=".85" fill="#536F8C" opacity=".18"/><circle cx="941" cy="185" r=".85" fill="#536F8C" opacity=".18"/><circle cx="941" cy="209" r=".85" fill="#536F8C" opacity=".18"/><circle cx="941" cy="233" r=".85" fill="#536F8C" opacity=".18"/><circle cx="941" cy="257" r=".85" fill="#536F8C" opacity=".18"/><circle cx="941" cy="281" r=".85" fill="#536F8C" opacity=".18"/><circle cx="941" cy="305" r=".85" fill="#536F8C" opacity=".18"/><circle cx="941" cy="329" r=".85" fill="#536F8C" opacity=".18"/><circle cx="965" cy="137" r=".85" fill="#536F8C" opacity=".18"/><circle cx="965" cy="161" r=".85" fill="#536F8C" opacity=".18"/><circle cx="965" cy="185" r=".85" fill="#536F8C" opacity=".18"/><circle cx="965" cy="209" r=".85" fill="#536F8C" opacity=".18"/><circle cx="965" cy="233" r=".85" fill="#536F8C" opacity=".18"/><circle cx="965" cy="257" r=".85" fill="#536F8C" opacity=".18"/><circle cx="965" cy="281" r=".85" fill="#536F8C" opacity=".18"/><circle cx="965" cy="305" r=".85" fill="#536F8C" opacity=".18"/><circle cx="965" cy="329" r=".85" fill="#536F8C" opacity=".18"/><circle cx="989" cy="137" r=".85" fill="#536F8C" opacity=".18"/><circle cx="989" cy="161" r=".85" fill="#536F8C" opacity=".18"/><circle cx="989" cy="185" r=".85" fill="#536F8C" opacity=".18"/><circle cx="989" cy="209" r=".85" fill="#536F8C" opacity=".18"/><circle cx="989" cy="233" r=".85" fill="#536F8C" opacity=".18"/><circle cx="989" cy="257" r=".85" fill="#536F8C" opacity=".18"/><circle cx="989" cy="281" r=".85" fill="#536F8C" opacity=".18"/><circle cx="989" cy="305" r=".85" fill="#536F8C" opacity=".18"/><circle cx="989" cy="329" r=".85" fill="#536F8C" opacity=".18"/><circle cx="1013" cy="137" r=".85" fill="#536F8C" opacity=".18"/><circle cx="1013" cy="161" r=".85" fill="#536F8C" opacity=".18"/><circle cx="1013" cy="185" r=".85" fill="#536F8C" opacity=".18"/><circle cx="1013" cy="209" r=".85" fill="#536F8C" opacity=".18"/><circle cx="1013" cy="233" r=".85" fill="#536F8C" opacity=".18"/><circle cx="1013" cy="257" r=".85" fill="#536F8C" opacity=".18"/><circle cx="1013" cy="281" r=".85" fill="#536F8C" opacity=".18"/><circle cx="1013" cy="305" r=".85" fill="#536F8C" opacity=".18"/><circle cx="1013" cy="329" r=".85" fill="#536F8C" opacity=".18"/><circle cx="1037" cy="137" r=".85" fill="#536F8C" opacity=".18"/><circle cx="1037" cy="161" r=".85" fill="#536F8C" opacity=".18"/><circle cx="1037" cy="185" r=".85" fill="#536F8C" opacity=".18"/><circle cx="1037" cy="209" r=".85" fill="#536F8C" opacity=".18"/><circle cx="1037" cy="233" r=".85" fill="#536F8C" opacity=".18"/><circle cx="1037" cy="257" r=".85" fill="#536F8C" opacity=".18"/><circle cx="1037" cy="281" r=".85" fill="#536F8C" opacity=".18"/><circle cx="1037" cy="305" r=".85" fill="#536F8C" opacity=".18"/><circle cx="1037" cy="329" r=".85" fill="#536F8C" opacity=".18"/><circle cx="1061" cy="137" r=".85" fill="#536F8C" opacity=".18"/><circle cx="1061" cy="161" r=".85" fill="#536F8C" opacity=".18"/><circle cx="1061" cy="185" r=".85" fill="#536F8C" opacity=".18"/><circle cx="1061" cy="209" r=".85" fill="#536F8C" opacity=".18"/><circle cx="1061" cy="233" r=".85" fill="#536F8C" opacity=".18"/><circle cx="1061" cy="257" r=".85" fill="#536F8C" opacity=".18"/><circle cx="1061" cy="281" r=".85" fill="#536F8C" opacity=".18"/><circle cx="1061" cy="305" r=".85" fill="#536F8C" opacity=".18"/><circle cx="1061" cy="329" r=".85" fill="#536F8C" opacity=".18"/><circle cx="1085" cy="137" r=".85" fill="#536F8C" opacity=".18"/><circle cx="1085" cy="161" r=".85" fill="#536F8C" opacity=".18"/><circle cx="1085" cy="185" r=".85" fill="#536F8C" opacity=".18"/><circle cx="1085" cy="209" r=".85" fill="#536F8C" opacity=".18"/><circle cx="1085" cy="233" r=".85" fill="#536F8C" opacity=".18"/><circle cx="1085" cy="257" r=".85" fill="#536F8C" opacity=".18"/><circle cx="1085" cy="281" r=".85" fill="#536F8C" opacity=".18"/><circle cx="1085" cy="305" r=".85" fill="#536F8C" opacity=".18"/><circle cx="1085" cy="329" r=".85" fill="#536F8C" opacity=".18"/><circle cx="1109" cy="137" r=".85" fill="#536F8C" opacity=".18"/><circle cx="1109" cy="161" r=".85" fill="#536F8C" opacity=".18"/><circle cx="1109" cy="185" r=".85" fill="#536F8C" opacity=".18"/><circle cx="1109" cy="209" r=".85" fill="#536F8C" opacity=".18"/><circle cx="1109" cy="233" r=".85" fill="#536F8C" opacity=".18"/><circle cx="1109" cy="257" r=".85" fill="#536F8C" opacity=".18"/><circle cx="1109" cy="281" r=".85" fill="#536F8C" opacity=".18"/><circle cx="1109" cy="305" r=".85" fill="#536F8C" opacity=".18"/><circle cx="1109" cy="329" r=".85" fill="#536F8C" opacity=".18"/><circle cx="1133" cy="137" r=".85" fill="#536F8C" opacity=".18"/><circle cx="1133" cy="161" r=".85" fill="#536F8C" opacity=".18"/><circle cx="1133" cy="185" r=".85" fill="#536F8C" opacity=".18"/><circle cx="1133" cy="209" r=".85" fill="#536F8C" opacity=".18"/><circle cx="1133" cy="233" r=".85" fill="#536F8C" opacity=".18"/><circle cx="1133" cy="257" r=".85" fill="#536F8C" opacity=".18"/><circle cx="1133" cy="281" r=".85" fill="#536F8C" opacity=".18"/><circle cx="1133" cy="305" r=".85" fill="#536F8C" opacity=".18"/><circle cx="1133" cy="329" r=".85" fill="#536F8C" opacity=".18"/><rect x="758" y="163" width="108" height="76" rx="10" fill="#EDF5FB" stroke="#C7D9EA"/><text x="769" y="184" font-size="12" font-weight="600" font-family="'SFMono-Regular',Consolas,'Liberation Mono',monospace" fill="#536F8C" >01</text><text x="769" y="209" font-size="16" font-weight="700" font-family="'SFMono-Regular',Consolas,'Liberation Mono',monospace" fill="#10253B" >API</text><text x="769" y="227" font-size="11" font-weight="450" font-family="'SFMono-Regular',Consolas,'Liberation Mono',monospace" fill="#0575BB" >FastAPI</text><rect x="899" y="163" width="108" height="76" rx="10" fill="#EDF5FB" stroke="#C7D9EA"/><text x="910" y="184" font-size="12" font-weight="600" font-family="'SFMono-Regular',Consolas,'Liberation Mono',monospace" fill="#536F8C" >02</text><text x="910" y="209" font-size="16" font-weight="700" font-family="'SFMono-Regular',Consolas,'Liberation Mono',monospace" fill="#10253B" >DATA</text><text x="910" y="227" font-size="11" font-weight="450" font-family="'SFMono-Regular',Consolas,'Liberation Mono',monospace" fill="#0575BB" >Postgres</text><rect x="1040" y="163" width="105" height="76" rx="10" fill="#EDF5FB" stroke="#C7D9EA"/><text x="1051" y="184" font-size="12" font-weight="600" font-family="'SFMono-Regular',Consolas,'Liberation Mono',monospace" fill="#536F8C" >03</text><text x="1051" y="209" font-size="16" font-weight="700" font-family="'SFMono-Regular',Consolas,'Liberation Mono',monospace" fill="#10253B" >EVENTS</text><text x="1051" y="227" font-size="11" font-weight="450" font-family="'SFMono-Regular',Consolas,'Liberation Mono',monospace" fill="#0575BB" >SQS / Redis</text><path d="M867 201H896M1009 201H1036" fill="none" stroke="#C7D9EA" stroke-width="3" stroke-linecap="round"/><path class="packet" d="M867 201H896M1009 201H1036" fill="none" stroke="#087F70" stroke-width="3" stroke-dasharray="10 52" stroke-linecap="round"/><path d="M810 241v29h281v-29" fill="none" stroke="#C7D9EA" stroke-width="1.7" stroke-dasharray="4 5"/><circle class="pulse" cx="810" cy="270" r="4" fill="#087F70"/><circle class="pulse2" cx="1091" cy="270" r="4" fill="#0575BB"/><rect x="759" y="292" width="385" height="42" rx="7" fill="#EDF5FB" stroke="#C7D9EA"/><text x="773" y="317" font-size="14" font-weight="700" font-family="'SFMono-Regular',Consolas,'Liberation Mono',monospace" fill="#087F70" >$</text><text x="792" y="317" font-size="13" font-weight="500" font-family="'SFMono-Regular',Consolas,'Liberation Mono',monospace" fill="#10253B" class="logline">request  &gt;  validate  &gt;  publish</text><text x="1119" y="355" font-size="11" font-weight="500" font-family="'SFMono-Regular',Consolas,'Liberation Mono',monospace" fill="#536F8C" text-anchor="end">COLOMBIA  ·  GITHUB</text></g></svg>